<svg width="48" height="48" viewBox="0 0 48 48" fill="none" xmlns="http://www.w3.org/2000/svg">
<g clip-path="url(#clip0_122_88)">
<path d="M24 12.001C20.74 12.001 20.333 12.016 19.053 12.073C17.775 12.133 16.905 12.334 16.14 12.631C15.351 12.937 14.681 13.348 14.014 14.015C13.347 14.682 12.935 15.351 12.63 16.141C12.333 16.906 12.131 17.776 12.072 19.054C12.012 20.334 12 20.741 12 24.001C12 27.261 12.015 27.668 12.072 28.948C12.132 30.225 12.333 31.096 12.63 31.861C12.936 32.649 13.347 33.32 14.014 33.987C14.681 34.653 15.35 35.066 16.14 35.371C16.906 35.667 17.776 35.87 19.053 35.929C20.333 35.989 20.74 36.001 24 36.001C27.26 36.001 27.667 35.986 28.947 35.929C30.224 35.869 31.095 35.667 31.86 35.371C32.648 35.065 33.319 34.653 33.986 33.987C34.652 33.32 35.065 32.652 35.37 31.861C35.666 31.096 35.869 30.225 35.928 28.948C35.988 27.668 36 27.261 36 24.001C36 20.741 35.985 20.334 35.928 19.054C35.868 17.777 35.666 16.905 35.37 16.141C35.064 15.352 34.652 14.682 33.986 14.015C33.319 13.348 32.651 12.936 31.86 12.631C31.095 12.334 30.224 12.132 28.947 12.073C27.667 12.013 27.26 12.001 24 12.001ZM24 14.161C27.203 14.161 27.585 14.177 28.85 14.232C30.02 14.287 30.655 14.481 31.077 14.647C31.639 14.864 32.037 15.124 32.459 15.543C32.878 15.963 33.138 16.362 33.355 16.924C33.519 17.346 33.715 17.981 33.768 19.151C33.825 20.417 33.838 20.797 33.838 24.001C33.838 27.205 33.823 27.586 33.764 28.851C33.703 30.021 33.508 30.656 33.343 31.078C33.119 31.64 32.864 32.038 32.444 32.46C32.025 32.879 31.62 33.139 31.064 33.356C30.644 33.52 29.999 33.716 28.829 33.769C27.555 33.826 27.18 33.839 23.97 33.839C20.759 33.839 20.384 33.824 19.111 33.765C17.94 33.704 17.295 33.509 16.875 33.344C16.306 33.12 15.915 32.865 15.496 32.445C15.075 32.026 14.806 31.621 14.596 31.065C14.431 30.645 14.237 30 14.176 28.83C14.131 27.57 14.115 27.181 14.115 23.986C14.115 20.79 14.131 20.4 14.176 19.125C14.237 17.955 14.431 17.311 14.596 16.891C14.806 16.321 15.075 15.931 15.496 15.51C15.915 15.091 16.306 14.821 16.875 14.612C17.295 14.446 17.926 14.251 19.096 14.191C20.371 14.146 20.746 14.131 23.955 14.131L24 14.161ZM24 17.839C20.595 17.839 17.838 20.599 17.838 24.001C17.838 27.406 20.598 30.163 24 30.163C27.405 30.163 30.162 27.403 30.162 24.001C30.162 20.596 27.402 17.839 24 17.839ZM24 28.001C21.79 28.001 20 26.211 20 24.001C20 21.791 21.79 20.001 24 20.001C26.21 20.001 28 21.791 28 24.001C28 26.211 26.21 28.001 24 28.001ZM31.846 17.596C31.846 18.391 31.2 19.036 30.406 19.036C29.611 19.036 28.966 18.39 28.966 17.596C28.966 16.802 29.612 16.157 30.406 16.157C31.199 16.156 31.846 16.802 31.846 17.596Z" fill="white"/>
</g>
<rect x="1" y="1" width="46" height="46.0019" rx="23" stroke="white" stroke-width="2"/>
<defs>
<clipPath id="clip0_122_88">
<rect width="24" height="24" fill="white" transform="translate(12 12.001)"/>
</clipPath>
</defs>
</svg>
