<svg width="48" height="48" viewBox="0 0 48 48" fill="none" xmlns="http://www.w3.org/2000/svg">
<g clip-path="url(#clip0_122_62)">
<path d="M24 12.297C17.37 12.297 12 17.67 12 24.297C12 29.6 15.438 34.097 20.205 35.682C20.805 35.795 21.025 35.424 21.025 35.105C21.025 34.82 21.015 34.065 21.01 33.065C17.672 33.789 16.968 31.455 16.968 31.455C16.422 30.07 15.633 29.7 15.633 29.7C14.546 28.956 15.717 28.971 15.717 28.971C16.922 29.055 17.555 30.207 17.555 30.207C18.625 32.042 20.364 31.512 21.05 31.205C21.158 30.429 21.467 29.9 21.81 29.6C19.145 29.3 16.344 28.268 16.344 23.67C16.344 22.36 16.809 21.29 17.579 20.45C17.444 20.147 17.039 18.927 17.684 17.274C17.684 17.274 18.689 16.952 20.984 18.504C21.944 18.237 22.964 18.105 23.984 18.099C25.004 18.105 26.024 18.237 26.984 18.504C29.264 16.952 30.269 17.274 30.269 17.274C30.914 18.927 30.509 20.147 30.389 20.45C31.154 21.29 31.619 22.36 31.619 23.67C31.619 28.28 28.814 29.295 26.144 29.59C26.564 29.95 26.954 30.686 26.954 31.81C26.954 33.416 26.939 34.706 26.939 35.096C26.939 35.411 27.149 35.786 27.764 35.666C32.565 34.092 36 29.592 36 24.297C36 17.67 30.627 12.297 24 12.297Z" fill="white"/>
</g>
<rect x="1" y="1" width="46" height="46" rx="23" stroke="white" stroke-width="2"/>
<defs>
<clipPath id="clip0_122_62">
<rect width="24" height="24" fill="white" transform="translate(12 12)"/>
</clipPath>
</defs>
</svg>
